<svg id="instagram" xmlns="http://www.w3.org/2000/svg" width="42.141" height="42.141" viewBox="0 0 42.141 42.141">
  <path id="Контур_4" data-name="Контур 4" d="M215.066,211.033A4.033,4.033,0,1,1,211.033,207,4.033,4.033,0,0,1,215.066,211.033Zm0,0" transform="translate(-189.963 -189.963)" fill="#05386b"/>
  <path id="Контур_5" data-name="Контур 5" d="M154.836,138.272a4.007,4.007,0,0,0-2.3-2.3,6.694,6.694,0,0,0-2.246-.416c-1.276-.058-1.659-.071-4.889-.071s-3.613.012-4.889.07a6.7,6.7,0,0,0-2.246.417,4.008,4.008,0,0,0-2.3,2.3,6.7,6.7,0,0,0-.416,2.247c-.058,1.276-.071,1.658-.071,4.889s.013,3.613.071,4.889a6.694,6.694,0,0,0,.416,2.246,4.006,4.006,0,0,0,2.3,2.3,6.686,6.686,0,0,0,2.247.417c1.276.058,1.658.07,4.889.07s3.614-.012,4.889-.07a6.686,6.686,0,0,0,2.247-.417,4.007,4.007,0,0,0,2.3-2.3,6.7,6.7,0,0,0,.417-2.246c.058-1.276.07-1.659.07-4.889s-.012-3.613-.07-4.889A6.686,6.686,0,0,0,154.836,138.272ZM145.4,151.62a6.213,6.213,0,1,1,6.213-6.213A6.213,6.213,0,0,1,145.4,151.62Zm6.458-11.219a1.452,1.452,0,1,1,1.452-1.452A1.452,1.452,0,0,1,151.862,140.4Zm0,0" transform="translate(-124.333 -124.337)" fill="#05386b"/>
  <path id="Контур_6" data-name="Контур 6" d="M21.07,0a21.07,21.07,0,1,0,21.07,21.07A21.073,21.073,0,0,0,21.07,0ZM33.1,26.058A8.877,8.877,0,0,1,32.534,29,6.186,6.186,0,0,1,29,32.534a8.883,8.883,0,0,1-2.937.562c-1.29.059-1.7.073-4.988.073s-3.7-.014-4.989-.073a8.883,8.883,0,0,1-2.937-.562A6.186,6.186,0,0,1,9.607,29a8.875,8.875,0,0,1-.562-2.937c-.059-1.291-.073-1.7-.073-4.989s.014-3.7.073-4.988a8.878,8.878,0,0,1,.562-2.937,6.191,6.191,0,0,1,3.539-3.539,8.885,8.885,0,0,1,2.937-.562c1.29-.059,1.7-.073,4.988-.073s3.7.014,4.988.073A8.887,8.887,0,0,1,29,9.606a6.188,6.188,0,0,1,3.539,3.539,8.876,8.876,0,0,1,.563,2.937c.059,1.29.073,1.7.073,4.988S33.156,24.768,33.1,26.058Zm0,0" fill="#05386b"/>
</svg>
