<svg id="odnoklassniki" xmlns="http://www.w3.org/2000/svg" width="42.141" height="42.141" viewBox="0 0 42.141 42.141">
  <g id="Сгруппировать_6" data-name="Сгруппировать 6">
    <path id="Контур_7" data-name="Контур 7" d="M44.1,30.922a3.632,3.632,0,1,0-3.654-3.6A3.607,3.607,0,0,0,44.1,30.922Z" transform="translate(-23.009 -13.459)" fill="#05386b"/>
    <path id="Контур_8" data-name="Контур 8" d="M21.07,0a21.07,21.07,0,1,0,21.07,21.07A21.071,21.071,0,0,0,21.07,0Zm.03,6.408a7.422,7.422,0,1,1-7.446,7.405A7.424,7.424,0,0,1,21.1,6.408Zm8.313,17.759A8.92,8.92,0,0,1,26.2,26.243a15.109,15.109,0,0,1-3.648.817c.188.2.277.3.394.422,1.688,1.7,3.385,3.386,5.067,5.088a1.676,1.676,0,0,1,.377,1.973,2,2,0,0,1-1.876,1.17,1.826,1.826,0,0,1-1.187-.607c-1.274-1.282-2.573-2.541-3.82-3.848-.364-.38-.538-.308-.86.022-1.282,1.32-2.584,2.619-3.895,3.911a1.633,1.633,0,0,1-1.971.354,1.994,1.994,0,0,1-1.151-1.837,1.837,1.837,0,0,1,.618-1.232q2.507-2.5,5-5.013c.111-.111.213-.228.374-.4a11.4,11.4,0,0,1-6.078-2.169,8.036,8.036,0,0,1-.641-.527A1.821,1.821,0,0,1,14.97,21.4a3.564,3.564,0,0,1,.5.3,9.965,9.965,0,0,0,11.047.1,3,3,0,0,1,1.076-.556,1.688,1.688,0,0,1,1.934.772A1.638,1.638,0,0,1,29.413,24.167Z" fill="#05386b"/>
  </g>
</svg>
