<svg id="vk" xmlns="http://www.w3.org/2000/svg" width="42.141" height="42.141" viewBox="0 0 42.141 42.141">
  <path id="Контур_9" data-name="Контур 9" d="M21.07,0a21.07,21.07,0,1,0,21.07,21.07A21.071,21.071,0,0,0,21.07,0ZM31.758,23.349a40.065,40.065,0,0,1,2.9,2.92,8.273,8.273,0,0,1,1.039,1.5c.4.776.039,1.628-.656,1.674H30.727a3.335,3.335,0,0,1-2.75-1.12c-.6-.607-1.151-1.256-1.726-1.884a4.036,4.036,0,0,0-.777-.691.9.9,0,0,0-1.437.349,4.522,4.522,0,0,0-.455,2.015c-.047,1.018-.354,1.284-1.375,1.332a11.053,11.053,0,0,1-6.177-1.329,13.635,13.635,0,0,1-4.157-3.891A52.437,52.437,0,0,1,6.4,14.466c-.345-.769-.093-1.18.755-1.2,1.409-.027,2.818-.024,4.227,0a1.242,1.242,0,0,1,1.173.878,26.228,26.228,0,0,0,2.864,5.308,4.538,4.538,0,0,0,1.083,1.19.657.657,0,0,0,1.117-.329,3.62,3.62,0,0,0,.249-1.114,16.637,16.637,0,0,0-.069-3.9,1.628,1.628,0,0,0-1.386-1.489c-.412-.078-.352-.231-.151-.466a1.552,1.552,0,0,1,1.325-.659h4.877c.769.151.941.5,1.045,1.27l0,5.42c-.009.3.15,1.188.688,1.384.431.142.716-.2.973-.476a16.856,16.856,0,0,0,2.749-4.222c.329-.669.613-1.361.889-2.054a1.05,1.05,0,0,1,1.1-.756l4.7.006a2.443,2.443,0,0,1,.416.025c.792.135,1.008.476.763,1.248a11.7,11.7,0,0,1-1.866,3.237c-.785,1.085-1.621,2.131-2.4,3.221C30.816,21.983,30.872,22.484,31.758,23.349Z" fill="#05386b"/>
</svg>
