<svg id="youtube" xmlns="http://www.w3.org/2000/svg" width="42.141" height="42.141" viewBox="0 0 42.141 42.141">
  <path id="Контур_10" data-name="Контур 10" d="M224.113,215.934l6.854-3.947-6.854-3.947Zm0,0" transform="translate(-205.667 -190.916)" fill="#05386b"/>
  <path id="Контур_11" data-name="Контур 11" d="M21.07,0a21.07,21.07,0,1,0,21.07,21.07A21.073,21.073,0,0,0,21.07,0ZM34.236,21.092a34.776,34.776,0,0,1-.542,6.334,3.3,3.3,0,0,1-2.321,2.321c-2.061.542-10.3.542-10.3.542s-8.221,0-10.3-.564A3.3,3.3,0,0,1,8.447,27.4,34.623,34.623,0,0,1,7.9,21.07a34.753,34.753,0,0,1,.542-6.333,3.366,3.366,0,0,1,2.321-2.342c2.061-.542,10.3-.542,10.3-.542s8.242,0,10.3.564a3.3,3.3,0,0,1,2.321,2.321,33,33,0,0,1,.542,6.355Zm0,0" fill="#05386b"/>
</svg>
