<svg xmlns="http://www.w3.org/2000/svg" xmlns:xlink="http://www.w3.org/1999/xlink" width="295.615" height="246" viewBox="0 0 295.615 246">
  <defs>
    <clipPath id="clip-path">
      <rect id="Прямоугольник_14" data-name="Прямоугольник 14" width="235.619" height="81.812" fill="#05386b" stroke="#05386b" stroke-width="45"/>
    </clipPath>
  </defs>
  <g id="logo" transform="translate(-855.191 -403)">
    <g id="лого-косое">
      <g id="Сгруппировать_39" data-name="Сгруппировать 39" transform="translate(140.83 -33)">
        <g id="Сгруппировать_38" data-name="Сгруппировать 38" transform="translate(714.361 455.809)">
          <g id="Вычитание_3" data-name="Вычитание 3" transform="translate(67.662 99.006)">
            <path id="Контур_66" data-name="Контур 66" d="M-12164.614,304.185-12215,204h100.773Z" transform="translate(12215.001 -203.999)" fill="none"/>
            <path id="Контур_67" data-name="Контур 67" d="M-12164.614,245.162l7.367-14.643h-14.733l7.366,14.643m0,59.022L-12215,204h100.773Z" transform="translate(12215.001 -203.999)" fill="#05386b"/>
          </g>
          <g id="Группа_масок_1" data-name="Группа масок 1" transform="translate(0)" clip-path="url(#clip-path)">
            <g id="Исключение_3" data-name="Исключение 3" transform="translate(-0.11 -36.538)">
              <path id="Контур_68" data-name="Контур 68" d="M-12138.2,121.864h-117.864L-12315,4h235.729Z" transform="translate(12315.001 -4)" fill="none"/>
              <path id="Контур_69" data-name="Контур 69" d="M-12154.587,95.344l32.411-64.825H-12272.1l32.413,64.825h85.1m16.383,26.519h-117.864L-12315,4h235.729Z" transform="translate(12315.001 -3.999)" fill="#05386b"/>
            </g>
          </g>
        </g>
      </g>
      <text id="yatsh" transform="matrix(0.454, -0.891, 0.891, 0.454, 980, 615.405)" fill="#05386b" font-size="62" font-family="KiloGram" letter-spacing="0.184em"><tspan x="0" y="59">yatsh</tspan></text>
    </g>
    <g id="crown" transform="translate(930.706 341.965)">
      <g id="Сгруппировать_42" data-name="Сгруппировать 42" transform="translate(0 61.035)">
        <g id="Сгруппировать_41" data-name="Сгруппировать 41">
          <path id="Контур_72" data-name="Контур 72" d="M42.147,92.994l-4.529,7.548,4.529,7.548,4.529-7.548Zm0,0-4.529,7.548,4.529,7.548,4.529-7.548Zm38.2-11.719L62.663,94.428,44.29,62.278a2.47,2.47,0,0,0-4.287,0L21.631,94.428,3.947,81.275A2.472,2.472,0,0,0,.08,83.866L6.83,110.419H22.393a2.469,2.469,0,1,1,0,4.939H8.084l2.038,8.017a2.471,2.471,0,0,0,2.394,1.86H71.778a2.471,2.471,0,0,0,2.394-1.86l2.038-8.017H61.9a2.469,2.469,0,1,1,0-4.939H77.464l6.749-26.553A2.472,2.472,0,0,0,80.346,81.275ZM51.672,101.813l-7.408,12.346a2.47,2.47,0,0,1-4.234,0l-7.408-12.346a2.471,2.471,0,0,1,0-2.542L40.03,86.924a2.47,2.47,0,0,1,4.234,0l7.408,12.346A2.471,2.471,0,0,1,51.672,101.813Zm-14.053-1.271,4.529,7.548,4.529-7.548-4.529-7.548Z" transform="translate(0 -61.035)" fill="#05386b"/>
        </g>
      </g>
      <g id="Сгруппировать_44" data-name="Сгруппировать 44" transform="translate(13.21 70.912)">
        <g id="Сгруппировать_43" data-name="Сгруппировать 43">
          <path id="Контур_73" data-name="Контур 73" d="M91.8,129.122l-4.65,8.137-6.9-5.131,1.822-9.113a2.471,2.471,0,0,1,4.4-1Z" transform="translate(-80.249 -121.031)" fill="#05386b"/>
        </g>
      </g>
      <g id="Сгруппировать_46" data-name="Сгруппировать 46" transform="translate(59.535 70.912)">
        <g id="Сгруппировать_45" data-name="Сгруппировать 45">
          <path id="Контур_74" data-name="Контур 74" d="M373.207,132.128l-6.9,5.131-4.65-8.137,5.329-7.1a2.472,2.472,0,0,1,4.4,1Z" transform="translate(-361.659 -121.031)" fill="#05386b"/>
        </g>
      </g>
    </g>
  </g>
</svg>
